<svg width="200" height="200" viewBox="0 0 200 200" xmlns="http://www.w3.org/2000/svg" role="img">
<title>Applywise logo</title>
<desc>A rounded square mark in ash gradient tones containing an interlocking A and W monogram, with a small accent tick representing a match checkmark.</desc>
<defs>
<linearGradient id="ashBg2" x1="0" y1="0" x2="1" y2="1">
<stop offset="0%" stop-color="#3a3d42"/>
<stop offset="55%" stop-color="#25272b"/>
<stop offset="100%" stop-color="#16171a"/>
</linearGradient>
<linearGradient id="strokeGrad" x1="0" y1="0" x2="0" y2="1">
<stop offset="0%" stop-color="#e7e5e0"/>
<stop offset="100%" stop-color="#b9b6ae"/>
</linearGradient>
<linearGradient id="accentGrad" x1="0" y1="0" x2="1" y2="0">
<stop offset="0%" stop-color="#f5a623"/>
<stop offset="100%" stop-color="#e8791a"/>
</linearGradient>
</defs>
<rect x="4" y="4" width="192" height="192" rx="44" fill="url(#ashBg2)"/>
<rect x="4.5" y="4.5" width="191" height="191" rx="43.5" fill="none" stroke="#4a4d52" stroke-width="1"/>
<g fill="none" stroke="url(#strokeGrad)" stroke-width="11" stroke-linecap="round" stroke-linejoin="round">
<path d="M100 46 L60 148"/>
<path d="M100 46 L140 148"/>
<path d="M74 108 L126 108"/>
</g>
<g fill="none" stroke="url(#strokeGrad)" stroke-width="9" stroke-linecap="round" stroke-linejoin="round" opacity="0.55">
<path d="M62 100 L84 152 L100 118 L116 152 L138 100"/>
</g>
<path d="M118 128 L131 141 L156 110" fill="none" stroke="url(#accentGrad)" stroke-width="10" stroke-linecap="round" stroke-linejoin="round"/>
<circle cx="139" cy="126" r="26" fill="#1c1e21" stroke="#4a4d52" stroke-width="1"/>
<path d="M126 128 L136 138 L154 116" fill="none" stroke="url(#accentGrad)" stroke-width="9" stroke-linecap="round" stroke-linejoin="round"/>
</svg>
